<svg width="15" height="19" viewBox="0 0 15 19" fill="none" xmlns="http://www.w3.org/2000/svg">
<rect x="11.9457" y="3.32137" width="2.27536" height="12.5429" rx="1.13768" fill="url(#paint0_linear_6_27)"/>
<rect x="2.27537" y="3.32137" width="2.27536" height="14.1108" rx="1.13768" fill="url(#paint1_linear_6_27)"/>
<ellipse cx="2.27536" cy="16.6482" rx="2.27536" ry="2.35179" fill="url(#paint2_linear_6_27)"/>
<ellipse cx="11.759" cy="15.4723" rx="2.35179" ry="1.95983" fill="url(#paint3_linear_6_27)"/>
<path d="M2.38489 4.43501C2.3244 3.88605 2.71359 3.34932 3.25417 3.2362L13.0657 1.183C13.6221 1.06657 14.1184 1.44389 14.1577 2.01319L14.221 2.92939L14.221 3.98666C14.221 4.50077 13.8449 4.96848 13.347 5.07338L3.68236 7.10977C3.14134 7.22376 2.65323 6.8704 2.59268 6.3209L2.38489 4.43501Z" fill="url(#paint4_linear_6_27)"/>
<defs>
<linearGradient id="paint0_linear_6_27" x1="13.0833" y1="3.32137" x2="13.0833" y2="15.8643" gradientUnits="userSpaceOnUse">
<stop stop-color="#EE5BDF"/>
<stop offset="1" stop-color="#6332CA" stop-opacity="0.89"/>
</linearGradient>
<linearGradient id="paint1_linear_6_27" x1="3.41305" y1="3.32137" x2="3.41305" y2="17.4321" gradientUnits="userSpaceOnUse">
<stop stop-color="#EE5BDF"/>
<stop offset="1" stop-color="#6332CA" stop-opacity="0.89"/>
</linearGradient>
<linearGradient id="paint2_linear_6_27" x1="2.27536" y1="14.2964" x2="2.27536" y2="19" gradientUnits="userSpaceOnUse">
<stop stop-color="#EE5BDF"/>
<stop offset="1" stop-color="#6332CA" stop-opacity="0.89"/>
</linearGradient>
<linearGradient id="paint3_linear_6_27" x1="11.759" y1="13.5125" x2="11.759" y2="17.4321" gradientUnits="userSpaceOnUse">
<stop stop-color="#EE5BDF"/>
<stop offset="1" stop-color="#6332CA" stop-opacity="0.89"/>
</linearGradient>
<linearGradient id="paint4_linear_6_27" x1="8.18051" y1="2.2053" x2="8.97534" y2="6.00355" gradientUnits="userSpaceOnUse">
<stop stop-color="#EE5BDF"/>
<stop offset="1" stop-color="#6332CA" stop-opacity="0.89"/>
</linearGradient>
</defs>
</svg>
